<svg width="20" height="16" viewBox="0 0 20 16" fill="none" xmlns="http://www.w3.org/2000/svg">
<path d="M10.0002 15.5C5.41093 15.5 0.833496 11.3896 0.833496 8C0.833496 4.61038 5.41093 0.5 10.0002 0.5C14.5894 0.5 19.1668 4.61038 19.1668 8C19.1668 11.3896 14.5894 15.5 10.0002 15.5ZM10.0002 13.8333C13.7065 13.8333 17.5002 10.4268 17.5002 8C17.5002 5.57323 13.7065 2.16667 10.0002 2.16667C6.2938 2.16667 2.50016 5.57323 2.50016 8C2.50016 10.4268 6.2938 13.8333 10.0002 13.8333ZM10.0002 11.75C7.9291 11.75 6.25016 10.0711 6.25016 8C6.25016 5.92893 7.9291 4.25 10.0002 4.25C12.0712 4.25 13.7502 5.92893 13.7502 8C13.7502 10.0711 12.0712 11.75 10.0002 11.75ZM10.0002 10.0833C11.1508 10.0833 12.0835 9.15059 12.0835 8C12.0835 6.84941 11.1508 5.91667 10.0002 5.91667C8.84957 5.91667 7.91683 6.84941 7.91683 8C7.91683 9.15059 8.84957 10.0833 10.0002 10.0833Z" fill="#969394"/>
</svg>
